#!OML:ASF F:\VICON\USERDATA\INSTALL\rory3\rory3.ASF
:FULLY-SPECIFIED
:DEGREES
1259
root 5.56214 17.4663 1.24779 19.3078 2.49125 0.687513
lowerback -10.1073 -1.41218 9.90229
upperback -13.6858 -2.25125 0.752194
thorax -9.5626 -2.05942 -4.72014
lowerneck -3.50721 19.7191 10.66
upperneck 9.59682 25.8466 -0.252817
head 4.79656 13.0884 0.0412034
rclavicle -4.96962e-015 5.56597e-015
rhumerus -9.20101 -29.9498 30.1573
rradius 112.387
rwrist -63.3435
rhand -3.68261 -41.7063
rfingers 7.12502
rthumb 22.0587 -70.4682
lclavicle -4.96962e-015 5.56597e-015
lhumerus 22.8208 27.1519 -13.3381
lradius 32.7532
lwrist 56.1777
lhand -17.7707 -13.4154
lfingers 7.12502
lthumb 8.49162 16.3939
rfemur -11.8707 10.7039 -8.77029
rtibia 10.6961
rfoot -11.6941 -24.1937
rtoes 35.2681
lfemur -18.8487 2.89379 -30.4445
ltibia 16.3377
lfoot -15.9041 1.79743
ltoes 9.36207
1260
root 5.56372 17.4695 1.24628 19.3175 2.48443 0.669483
lowerback -10.0394 -1.41551 9.93217
upperback -13.7078 -2.24756 0.75855
thorax -9.62936 -2.06366 -4.72619
lowerneck -3.49609 19.7084 10.6185
upperneck 9.57791 25.8321 -0.219595
head 4.77866 13.0818 0.0491602
rclavicle 7.09661e-014 2.14687e-014
rhumerus -9.23642 -29.819 30.2054
rradius 112.483
rwrist -63.3756
rhand -4.13139 -41.7164
rfingers 7.12502
rthumb 21.6278 -70.5285
lclavicle 7.09661e-014 2.14687e-014
lhumerus 22.8047 27.198 -13.3386
lradius 32.7909
lwrist 56.261
lhand -17.082 -13.2732
lfingers 7.12502
lthumb 9.15618 16.5081
rfemur -11.8389 10.7535 -8.76651
rtibia 10.5888
rfoot -11.1705 -24.4904
rtoes 34.2049
lfemur -18.8757 2.81453 -30.4203
ltibia 16.3406
lfoot -15.8925 1.89727
ltoes 9.36514
1261
root 5.56446 17.4674 1.25142 19.229 2.36085 0.724538
lowerback -9.97705 -1.39216 9.8895
upperback -13.6917 -2.21054 0.732124
thorax -9.63703 -2.04262 -4.72968
lowerneck -3.45508 19.7286 10.5604
upperneck 9.57398 25.8576 -0.125276
head 4.75247 13.0981 0.0756237
rclavicle 8.15017e-015 -5.00937e-014
rhumerus -9.19573 -29.7997 30.1997
rradius 112.47
rwrist -63.3623
rhand -4.02553 -41.7891
rfingers 7.12502
rthumb 21.7294 -70.5895
lclavicle 8.15017e-015 -5.00937e-014
lhumerus 22.7603 27.1255 -13.4214
lradius 32.8203
lwrist 56.4323
lhand -16.8287 -13.2888
lfingers 7.12502
lthumb 9.40059 16.4815
rfemur -11.7391 10.8678 -8.85722
rtibia 10.4935
rfoot -11.2261 -24.4838
rtoes 34.3685
lfemur -18.7496 2.94501 -30.5185
ltibia 16.3262
lfoot -15.9424 1.90944
ltoes 9.455
1262
root 5.56808 17.4631 1.26153 19.0497 2.16652 0.75848
lowerback -9.98076 -1.33081 9.91157
upperback -13.6069 -2.13796 0.685705
thorax -9.52647 -2.00404 -4.79572
lowerneck -3.53799 19.7472 10.514
upperneck 9.79351 25.8622 0.0452193
head 4.80651 13.1092 0.146629
rclavicle -1.70955e-014 1.03368e-014
rhumerus -9.15311 -29.8292 30.1582
rradius 112.415
rwrist -63.1991
rhand -3.58758 -41.8308
rfingers 7.12502
rthumb 22.15 -70.5819
lclavicle -1.70955e-014 1.03368e-014
lhumerus 22.6904 26.9509 -13.5853
lradius 32.8574
lwrist 56.6545
lhand -17.3926 -13.5016
lfingers 7.12502
lthumb 8.85649 16.2925
rfemur -11.6143 10.9326 -8.92637
rtibia 10.478
rfoot -11.095 -24.4201
rtoes 34.5488
lfemur -18.4905 3.21414 -30.6264
ltibia 16.2806
lfoot -16.0077 1.84741
ltoes 9.54242
1263
root 5.5708 17.4628 1.26424 19.1007 2.21229 0.751634
lowerback -10.1176 -1.32709 9.96714
upperback -13.595 -2.15187 0.678946
thorax -9.44229 -2.01296 -4.83928
lowerneck -3.53047 19.7428 10.5497
upperneck 9.85147 25.8578 0.0296423
head 4.83008 13.1081 0.142493
rclavicle -9.93923e-016 -4.77083e-015
rhumerus -9.19163 -29.7755 30.189
rradius 112.47
rwrist -63.1119
rhand -3.59033 -41.795
rfingers 7.12502
rthumb 22.1473 -70.5464
lclavicle -9.93923e-016 -4.77083e-015
lhumerus 22.6746 26.8818 -13.6468
lradius 32.878
lwrist 56.7053
lhand -18.008 -13.8853
lfingers 7.12502
lthumb 8.26262 15.9332
rfemur -11.6454 10.7848 -8.90225
rtibia 10.537
rfoot -11.2454 -24.2857
rtoes 35.1906
lfemur -18.499 3.2186 -30.6299
ltibia 16.2213
lfoot -15.9582 1.78621
ltoes 9.65269
1264
root 5.56943 17.463 1.25755 19.3105 2.44356 0.800271
lowerback -10.2022 -1.39606 9.93421
upperback -13.691 -2.24542 0.694555
thorax -9.52015 -2.06233 -4.80394
lowerneck -3.38737 19.7192 10.6903
upperneck 9.72325 25.8566 -0.201374
head 4.81567 13.1004 0.0485716
rclavicle 7.55382e-015 3.49861e-014
rhumerus -9.21708 -29.7226 30.2021
rradius 112.559
rwrist -63.1697
rhand -3.97931 -41.9449
rfingers 7.12502
rthumb 21.7738 -70.7401
lclavicle 7.55382e-015 3.49861e-014
lhumerus 22.6165 26.806 -13.7102
lradius 32.964
lwrist 56.7868
lhand -17.6803 -13.755
lfingers 7.12502
lthumb 8.57886 16.0507
rfemur -11.7815 10.5688 -8.90796
rtibia 10.6513
rfoot -12.0414 -23.9109
rtoes 36.4231
lfemur -18.7028 2.94366 -30.615
ltibia 16.1916
lfoot -15.8641 1.78497
ltoes 9.88544
1265
root 5.56669 17.4634 1.2489 19.3952 2.54487 0.855253
lowerback -10.1221 -1.43559 9.86315
upperback -13.7563 -2.2823 0.693672
thorax -9.6431 -2.08125 -4.76016
lowerneck -3.45499 19.7193 10.7527
upperneck 9.8709 25.8484 -0.202422
head 4.88044 13.0987 0.0595105
rclavicle 9.93923e-016 -9.54166e-015
rhumerus -9.19131 -29.7722 30.1439
rradius 112.543
rwrist -63.1552
rhand -4.20103 -42.1306
rfingers 7.12502
rthumb 21.5609 -70.9504
lclavicle 9.93923e-016 -9.54166e-015
lhumerus 22.5742 26.7237 -13.7874
lradius 33.0399
lwrist 56.7962
lhand -17.7085 -13.5387
lfingers 7.12502
lthumb 8.55168 16.2681
rfemur -11.9243 10.5721 -8.96124
rtibia 10.8236
rfoot -12.8727 -23.5046
rtoes 37.4176
lfemur -18.8004 2.77561 -30.6293
ltibia 16.1761
lfoot -15.7714 1.84182
ltoes 9.96129
1266
root 5.56272 17.4651 1.24571 19.4242 2.51239 0.882111
lowerback -10.1036 -1.4304 9.77013
upperback -13.7565 -2.26985 0.691747
thorax -9.64298 -2.06602 -4.71023
lowerneck -3.56254 19.7608 10.6947
upperneck 10.0101 25.8813 -0.050366
head 4.91511 13.1208 0.126837
rclavicle -1.17283e-014 -5.56597e-015
rhumerus -9.20019 -29.8544 30.1538
rradius 112.498
rwrist -63.1637
rhand -4.0248 -42.0669
rfingers 7.12502
rthumb 21.7301 -70.8672
lclavicle -1.17283e-014 -5.56597e-015
lhumerus 22.6595 26.7654 -13.7272
lradius 33.0398
lwrist 56.7695
lhand -18.4433 -13.7167
lfingers 7.12502
lthumb 7.84248 16.1179
rfemur -12.0435 10.6536 -9.00614
rtibia 10.9669
rfoot -12.8748 -23.4626
rtoes 37.2204
lfemur -18.8733 2.85882 -30.6779
ltibia 16.157
lfoot -15.7045 1.79929
ltoes 9.67913
1267
root 5.56059 17.465 1.2454 19.425 2.50211 0.888389
lowerback -10.0792 -1.42748 9.73956
upperback -13.751 -2.26268 0.685735
thorax -9.64662 -2.05973 -4.69919
lowerneck -3.5053 19.7852 10.7004
upperneck 9.92879 25.9201 -0.0648829
head 4.88482 13.139 0.114875
rclavicle 4.77083e-015 -2.54444e-014
rhumerus -9.27353 -29.8649 30.2128
rradius 112.526
rwrist -63.2273
rhand -3.63805 -42.0526
rfingers 7.12502
rthumb 22.1015 -70.8094
lclavicle 4.77083e-015 -2.54444e-014
lhumerus 22.557 26.4943 -13.9654
lradius 33.1665
lwrist 57.3014
lhand -18.1946 -13.4985
lfingers 7.12502
lthumb 8.08248 16.327
rfemur -12.0258 10.6667 -9.00765
rtibia 10.9901
rfoot -13.1166 -23.2685
rtoes 37.7017
lfemur -18.9135 2.95236 -30.7
ltibia 16.1584
lfoot -15.7238 1.68866
ltoes 9.52304
1268
root 5.56335 17.4633 1.24461 19.4009 2.56512 0.861839
lowerback -9.99318 -1.43283 9.83487
upperback -13.7449 -2.26503 0.664508
thorax -9.69946 -2.07341 -4.77181
lowerneck -3.52822 19.7609 10.752
upperneck 9.88534 25.8865 -0.126798
head 4.88771 13.1198 0.091161
rclavicle -2.94201e-014 2.54444e-014
rhumerus -9.35269 -29.8444 30.2311
rradius 112.56
rwrist -63.2271
rhand -3.29853 -42.1073
rfingers 7.12502
rthumb 22.4274 -70.8252
lclavicle -2.94201e-014 2.54444e-014
lhumerus 22.303 26.0026 -14.4679
lradius 33.3276
lwrist 57.9847
lhand -17.4806 -13.1552
lfingers 7.12502
lthumb 8.77155 16.6426
rfemur -11.9194 10.6451 -8.96111
rtibia 10.9039
rfoot -13.8402 -22.9338
rtoes 39.1258
lfemur -18.8891 2.91096 -30.6526
ltibia 16.1605
lfoot -15.7335 1.63944
ltoes 9.76276
1269
root 5.56765 17.4628 1.2482 19.3329 2.51329 0.812059
lowerback -9.90841 -1.40586 9.94993
upperback -13.715 -2.22635 0.648734
thorax -9.71769 -2.06608 -4.85043
lowerneck -3.52311 19.7237 10.8191
upperneck 9.86776 25.8383 -0.189661
head 4.8959 13.0947 0.0632451
rclavicle -4.47266e-014 1.59028e-014
rhumerus -9.29939 -29.8801 30.1106
rradius 112.527
rwrist -63.1466
rhand -3.23794 -42.0468
rfingers 7.12502
rthumb 22.4856 -70.7577
lclavicle -4.47266e-014 1.59028e-014
lhumerus 22.2054 25.8677 -14.6759
lradius 33.327
lwrist 58.0585
lhand -16.9962 -13.0189
lfingers 7.12502
lthumb 9.23902 16.7587
rfemur -11.7983 10.6726 -8.92451
rtibia 10.7101
rfoot -13.1148 -23.3744
rtoes 38.0182
lfemur -18.8039 2.91363 -30.6045
ltibia 16.1746
lfoot -15.7267 1.69395
ltoes 10.0574
1270
root 5.5711 17.4634 1.25651 19.1804 2.3096 0.722361
lowerback -9.81868 -1.32579 10.0645
upperback -13.6512 -2.11758 0.641696
thorax -9.68535 -2.01976 -4.92061
lowerneck -3.56253 19.7008 10.8068
upperneck 9.96631 25.7978 -0.121014
head 4.92078 13.0788 0.0885018
rclavicle -4.11484e-014 3.97569e-015
rhumerus -9.21434 -29.9665 29.9994
rradius 112.469
rwrist -63.169
rhand -3.19608 -42.0781
rfingers 7.12502
rthumb 22.5258 -70.7841
lclavicle -4.11484e-014 3.97569e-015
lhumerus 22.2167 25.895 -14.6721
lradius 33.2902
lwrist 57.9352
lhand -16.4327 -12.8997
lfingers 7.12502
lthumb 9.78271 16.8531
rfemur -11.62 10.8501 -8.87737
rtibia 10.4606
rfoot -11.9919 -23.9227
rtoes 36.0862
lfemur -18.6492 3.07817 -30.5619
ltibia 16.2232
lfoot -15.8111 1.80782
ltoes 9.90801
